<?xml version="1.0" encoding="utf-8"?>
<!-- Generator: Adobe Illustrator 18.1.1, SVG Export Plug-In . SVG Version: 6.00 Build 0)  -->
<svg version="1.1" xmlns="http://www.w3.org/2000/svg" xmlns:xlink="http://www.w3.org/1999/xlink" x="0px" y="0px"
	 viewBox="0 0 112 112" enable-background="new 0 0 112 112" xml:space="preserve">
<g id="Scratch" display="none">
</g>
<g id="Layer_1">
	<rect x="11" y="95" fill="#FF454A" width="91.4" height="17"/>
	<g>
		<polygon fill="#091F2F" points="30,30 30,50 46.9,50 63,50 63,30 46.5,15.8 		"/>
		<path fill="#091F2F" d="M100.5,81.9l-26-26c4.3-5.8,6.8-13,6.8-20.8C81.3,15.8,65.5,0,46.2,0C26.8,0,11,15.8,11,35.2
			c0,19.4,15.8,35.2,35.2,35.2c8.2,0,15.8-2.9,21.8-7.6l26.2,26.2l0.3-0.3c1.7,1.3,4.2,1.2,5.8-0.4l0.1-0.1
			C102.2,86.4,102.2,83.6,100.5,81.9z M18,35.2C18,19.6,30.6,7,46.2,7s28.2,12.6,28.2,28.2S61.7,63.3,46.2,63.3S18,50.7,18,35.2z"/>
	</g>
</g>
<g id="Originals" display="none">
	<g id="XMLID_1892_" display="inline">
		<rect id="XMLID_1893_" x="-1" y="74" fill="#FF454A" width="112" height="17"/>
	</g>
	<polygon id="XMLID_1209_" display="inline" points="38,-16.9 19,-0.6 19,22 38.1,22 57,22 57,-0.6 	"/>
	<circle display="inline" fill="none" stroke="#000000" stroke-width="8" stroke-miterlimit="10" cx="37.2" cy="5.2" r="36.2"/>
	
		<line display="inline" fill="none" stroke="#000000" stroke-width="6" stroke-miterlimit="10" x1="61.2" y1="31.4" x2="94.4" y2="64.7"/>
	<path display="inline" d="M99.9,65.5l-1.1,1.1c-1.7,1.7-4.5,1.7-6.3,0L59.2,33.2l7.3-7.3l33.4,33.4
		C101.6,60.9,101.6,63.7,99.9,65.5z"/>
</g>
</svg>
